<?xml version="1.0" encoding="utf-8"?>
<!-- Generator: Adobe Illustrator 13.0.0, SVG Export Plug-In . SVG Version: 6.00 Build 14948)  -->
<!DOCTYPE svg PUBLIC "-//W3C//DTD SVG 1.1//EN" "http://www.w3.org/Graphics/SVG/1.1/DTD/svg11.dtd">
<svg version="1.1" id="Layer_1" xmlns="http://www.w3.org/2000/svg" xmlns:xlink="http://www.w3.org/1999/xlink" x="0px" y="0px"
	 width="487.939px" height="131.983px" viewBox="0 0 487.939 131.983" enable-background="new 0 0 487.939 131.983"
	 xml:space="preserve">
<g>
	<g>
		<path fill-rule="evenodd" clip-rule="evenodd" fill="none" stroke="#000000" stroke-width="2.6933" stroke-linecap="round" d="
			M372.12,101.154c-12.677,14.139-39.15-8.375-27.173-29.436c13.33-23.438,32.422-12.084,45.985,7.548
			c13.779,19.943,31.563,28.045,53.296,17.723c25.204-11.972,26.748-39.653,18.716-57.276
			c-21.611-47.414-81.32-19.306-120.129-6.979c-9.272,2.945-26.687,8.095-40.354,12.407c-57.055,18-154.371,51.964-211.973,67.224
			c-42.7,11.313-85.958-17.4-66.764-64.512c10.417-25.571,34.685-37.101,56.607-25.84c24.085,12.372-7.501,60.931,33.154,62.477"/>
	</g>
</g>
</svg>
